<?xml version="1.0" standalone="no"?>
<!DOCTYPE svg PUBLIC "-//W3C//DTD SVG 20010904//EN"
 "http://www.w3.org/TR/2001/REC-SVG-20010904/DTD/svg10.dtd">
<svg version="1.0" xmlns="http://www.w3.org/2000/svg"
 width="512.000000pt" height="512.000000pt" viewBox="0 0 512.000000 512.000000"
 preserveAspectRatio="xMidYMid meet">
<metadata>
Created by potrace 1.14, written by Peter Selinger 2001-2017
</metadata>
<g transform="translate(0.000000,512.000000) scale(0.100000,-0.100000)"
fill="#000000" stroke="none">
<path d="M2527 4993 c-1 0 -49 -4 -107 -7 -110 -5 -281 -27 -365 -46 -28 -7
-58 -13 -67 -15 -43 -9 -171 -48 -243 -74 -132 -47 -179 -68 -302 -131 -340
-176 -647 -442 -861 -747 -35 -48 -69 -97 -77 -108 -33 -47 -139 -253 -197
-385 -49 -110 -126 -379 -143 -495 -3 -23 -7 -51 -10 -64 -4 -23 -11 -80 -20
-171 -11 -106 -5 -372 11 -475 3 -22 7 -57 9 -77 2 -20 6 -45 9 -55 3 -10 8
-34 10 -54 24 -189 183 -602 305 -789 9 -14 21 -32 26 -41 307 -490 836 -887
1380 -1035 6 -2 37 -10 70 -20 33 -9 69 -18 80 -19 11 -2 31 -6 45 -9 13 -3
42 -8 64 -12 22 -3 43 -7 46 -9 29 -17 571 -28 645 -12 17 3 50 8 75 11 190
23 421 90 634 182 86 38 330 170 361 196 6 5 42 32 80 59 189 136 362 303 496
479 35 47 66 87 69 90 18 16 122 193 175 295 115 225 209 514 239 735 3 19 8
62 13 95 9 70 9 486 0 560 -4 28 -10 66 -13 85 -4 19 -8 44 -10 55 -12 72 -18
98 -35 165 -11 41 -22 82 -24 90 -2 8 -15 51 -30 95 -228 680 -746 1224 -1417
1489 -109 43 -295 100 -363 112 -16 2 -37 7 -45 9 -8 2 -31 7 -50 9 -103 14
-126 18 -137 21 -18 6 -322 23 -326 18z m258 -268 c92 -11 102 -13 147 -20
117 -19 408 -104 478 -141 14 -7 69 -34 123 -60 54 -26 95 -50 90 -55 -4 -4
-22 -10 -40 -12 -49 -8 -133 -57 -182 -106 l-43 -45 33 -28 c19 -15 38 -28 42
-28 4 0 20 15 36 33 16 17 48 42 72 55 100 53 174 34 174 -46 0 -36 -6 -46
-45 -79 -164 -142 -195 -185 -193 -272 0 -58 18 -140 33 -155 5 -5 98 20 217
58 268 86 256 81 249 111 -11 42 -25 75 -33 75 -5 0 -84 -25 -177 -55 -92 -30
-170 -55 -172 -55 -2 0 -4 16 -4 34 0 39 41 87 135 161 28 22 63 53 79 70 30
31 60 91 52 103 -3 5 -1 14 4 21 17 29 266 -204 401 -374 69 -87 137 -186 170
-245 13 -25 27 -47 30 -50 8 -7 96 -191 120 -252 53 -133 118 -375 133 -493
34 -273 24 -555 -28 -775 -4 -14 -8 -34 -10 -45 -22 -116 -106 -347 -169 -465
-59 -111 -72 -135 -77 -140 -3 -3 -14 -22 -25 -42 -10 -21 -21 -36 -22 -34 -2
2 1 25 8 52 22 95 19 268 -7 429 -13 83 -26 164 -28 180 -2 17 -12 75 -20 130
-24 147 -22 133 -41 260 -4 22 -15 92 -25 155 -10 63 -21 133 -25 155 -3 22
-7 47 -10 55 -2 8 -7 35 -10 60 -2 25 -7 56 -10 70 -2 13 -7 42 -10 65 -3 22
-10 65 -15 95 -5 30 -11 69 -14 85 -3 17 -7 48 -11 70 -3 22 -8 56 -11 75 -2
19 -11 76 -20 125 -8 50 -17 101 -19 115 -2 14 -7 43 -10 65 -4 22 -8 54 -10
70 -13 97 -16 105 -39 105 -12 0 -47 -4 -77 -10 -52 -9 -107 -18 -159 -25 -14
-2 -38 -6 -55 -9 -16 -3 -48 -7 -70 -11 -23 -3 -50 -7 -60 -9 -19 -3 -67 -11
-140 -22 -16 -3 -37 -7 -45 -9 -8 -2 -35 -6 -60 -9 -25 -3 -54 -8 -65 -10 -11
-2 -40 -7 -65 -10 -25 -3 -56 -8 -70 -11 -14 -2 -41 -7 -60 -9 -19 -3 -46 -8
-60 -10 -13 -3 -42 -8 -65 -11 -45 -7 -147 -23 -185 -29 -14 -3 -43 -7 -65
-11 -22 -3 -85 -13 -140 -22 -55 -8 -110 -17 -122 -18 -25 -3 -96 -15 -128
-21 -10 -2 -35 -6 -55 -9 -20 -3 -45 -7 -57 -9 -12 -3 -43 -8 -70 -12 -26 -3
-57 -8 -68 -10 -11 -2 -40 -7 -65 -10 -112 -15 -140 -24 -140 -42 0 -14 17
-125 44 -282 4 -19 9 -55 11 -79 7 -59 10 -62 53 -56 20 4 48 8 62 9 14 2 39
6 55 9 17 3 48 8 70 12 22 3 51 8 65 10 14 2 70 11 125 20 111 18 140 22 188
31 17 3 48 7 67 9 19 2 60 9 90 14 30 6 73 13 95 16 22 3 51 8 65 10 14 3 39
7 55 9 17 2 86 13 155 25 69 11 143 23 165 26 22 2 65 9 95 14 30 5 58 6 61 3
3 -4 14 -56 23 -117 10 -60 20 -123 23 -140 2 -16 6 -43 8 -60 2 -16 7 -41 10
-55 3 -14 8 -43 10 -65 3 -22 7 -51 10 -65 3 -14 7 -38 10 -55 5 -37 33 -221
39 -255 3 -14 12 -70 20 -125 9 -55 18 -111 20 -125 3 -14 7 -43 11 -65 6 -44
12 -85 20 -130 3 -16 8 -46 11 -65 6 -42 20 -128 31 -190 4 -25 7 -103 7 -175
0 -140 -17 -215 -68 -297 -90 -148 -270 -241 -536 -277 -70 -10 -281 -7 -345
4 -137 24 -339 107 -472 194 -35 22 -68 38 -75 35 -7 -3 -74 -87 -148 -186
-74 -100 -140 -186 -146 -192 -8 -7 -5 -15 10 -27 25 -20 139 -87 146 -87 3 0
28 -13 55 -29 28 -16 73 -37 100 -47 28 -10 64 -24 80 -31 17 -7 50 -18 75
-25 25 -7 56 -16 70 -21 23 -7 50 -13 175 -35 90 -17 493 -9 595 11 14 3 39 7
55 10 17 3 41 7 55 9 14 3 59 14 100 24 41 11 76 19 78 17 5 -5 -134 -63 -223
-93 -143 -48 -222 -67 -400 -97 -145 -24 -462 -24 -610 0 -37 6 -92 16 -125
22 -211 38 -506 153 -693 270 -69 43 -152 97 -157 103 -3 3 -34 28 -70 55 -76
59 -72 55 -189 169 -86 85 -102 106 -82 106 4 0 102 14 217 30 115 17 223 32
239 34 84 12 132 19 150 23 11 2 40 6 65 9 44 5 81 10 130 19 14 2 45 7 70 10
25 2 56 7 70 10 14 3 45 8 70 11 54 7 80 10 140 19 79 12 93 14 205 30 61 9
121 18 135 20 14 2 48 6 75 10 59 7 109 15 139 21 11 3 41 7 66 10 25 3 68 8
95 12 55 8 54 6 41 102 -3 25 -8 63 -11 85 -27 205 -28 210 -55 208 -36 -2
-121 -12 -150 -18 -13 -2 -42 -7 -65 -10 -22 -3 -56 -8 -75 -10 -19 -3 -53 -8
-75 -10 -22 -3 -51 -7 -65 -10 -14 -2 -45 -7 -70 -10 -25 -3 -74 -11 -110 -16
-36 -6 -83 -12 -105 -15 -22 -2 -50 -6 -62 -9 -12 -3 -41 -7 -65 -10 -24 -3
-54 -7 -68 -10 -14 -3 -45 -7 -70 -10 -25 -3 -56 -8 -70 -10 -119 -19 -332
-48 -359 -49 -27 -1 -34 3 -36 19 -3 29 -14 106 -20 135 -3 14 -7 50 -10 80
-4 30 -9 63 -12 74 -3 10 -7 35 -8 55 -2 20 -6 50 -9 67 -3 17 -8 48 -11 70
-12 94 -22 164 -30 212 -5 28 -2 34 22 43 14 5 32 8 39 5 7 -2 15 -2 18 2 4 3
14 7 24 8 9 1 46 5 81 8 36 4 67 9 71 11 3 2 31 6 61 9 29 3 63 7 74 10 11 2
43 7 70 10 57 8 108 16 137 21 11 3 46 7 77 10 31 4 63 8 71 10 8 2 35 7 60
10 25 3 56 8 70 10 14 2 45 7 70 10 49 6 161 23 198 31 23 5 23 7 17 67 -4 34
-9 65 -11 68 -1 3 -6 34 -10 70 -4 35 -8 71 -10 79 -1 8 -6 37 -10 63 l-7 48
-41 -5 c-22 -3 -50 -8 -61 -10 -11 -2 -45 -7 -75 -11 -30 -4 -62 -9 -70 -10
-8 -1 -40 -6 -70 -10 -30 -4 -64 -9 -75 -11 -11 -2 -102 -15 -202 -29 -100
-15 -191 -28 -201 -30 -11 -2 -43 -6 -73 -10 -30 -3 -61 -8 -69 -10 -8 -2 -40
-7 -70 -10 -30 -3 -68 -8 -85 -12 -69 -14 -85 -12 -86 11 0 11 -2 30 -5 41 -2
11 -6 38 -9 60 -2 22 -7 51 -9 65 -5 22 -9 49 -21 135 -1 11 -6 47 -9 80 -4
33 -9 67 -11 75 -3 8 -9 49 -15 90 -6 41 -13 91 -16 112 -4 29 -2 37 13 42 19
6 120 22 192 31 23 3 55 7 70 10 15 3 45 7 67 10 21 2 50 7 64 10 14 2 45 7
70 10 25 2 56 7 70 9 14 3 45 7 70 10 25 4 56 8 70 10 30 6 231 35 280 41 85
11 159 21 220 31 19 3 49 8 65 10 17 2 44 6 60 8 17 3 53 8 80 12 28 3 54 8
59 11 7 5 5 46 -8 123 -3 14 -10 61 -16 105 -6 44 -13 95 -16 114 -6 45 -11
51 -37 45 -12 -2 -44 -6 -72 -9 -27 -3 -63 -8 -78 -11 -16 -3 -38 -7 -50 -9
-43 -5 -192 -26 -217 -30 -14 -2 -38 -6 -55 -9 -16 -3 -55 -8 -85 -11 -30 -3
-62 -8 -70 -10 -8 -2 -35 -7 -60 -10 -25 -3 -56 -8 -70 -10 -14 -2 -45 -7 -69
-10 -23 -3 -55 -7 -70 -9 -14 -3 -48 -7 -75 -11 -27 -3 -52 -8 -55 -9 -3 -2
-37 -7 -76 -11 -38 -4 -72 -8 -75 -10 -5 -3 -43 -8 -140 -20 -25 -3 -85 -12
-135 -20 -126 -20 -212 -28 -200 -18 6 4 32 37 60 73 27 36 61 77 75 91 14 15
37 39 51 55 273 303 745 565 1154 639 109 20 134 23 230 31 44 3 81 7 82 8 6
5 284 -2 338 -9z m-2254 -1442 c0 -16 2 -37 4 -48 4 -18 12 -71 20 -135 2 -14
5 -38 8 -55 4 -16 9 -52 12 -80 3 -27 7 -61 10 -75 2 -14 7 -43 10 -65 3 -23
7 -50 9 -60 2 -11 9 -63 16 -115 7 -52 14 -104 16 -115 2 -11 7 -40 10 -65 3
-25 7 -52 9 -60 2 -8 7 -42 11 -75 3 -33 7 -62 9 -65 2 -3 6 -34 10 -70 4 -36
8 -67 10 -70 2 -3 6 -34 10 -70 4 -36 8 -67 10 -70 2 -3 6 -33 10 -65 3 -33 8
-67 10 -75 2 -8 7 -39 10 -69 4 -30 9 -63 11 -75 2 -11 6 -38 9 -61 4 -22 8
-51 10 -65 2 -14 6 -43 9 -65 8 -56 18 -126 22 -150 10 -67 14 -105 11 -105
-7 0 -87 118 -87 128 0 6 -4 12 -8 14 -18 7 -121 202 -172 324 -35 85 -85 233
-94 279 -2 11 -9 38 -14 60 -11 39 -13 52 -26 125 -14 81 -16 99 -23 175 -12
140 -5 415 12 504 2 10 6 36 9 57 5 31 34 154 61 264 12 45 41 120 48 120 4 0
7 -12 8 -27z"/>
</g>
</svg>
